name analog
datacolumns 19
datarows 51
range 0.0 0.025
endheader
time	ground_force_vx	ground_force_vy	ground_force_vz	ground_force_px	ground_force_py	ground_force_pz	l_ground_force_vx	l_ground_force_vy	l_ground_force_vz	l_ground_force_px	l_ground_force_py	l_ground_force_pz	ground_torque_x	ground_torque_y	ground_torque_z	l_ground_torque_x	l_ground_torque_y	l_ground_torque_z
0.0	-0.0	-0.0	-0.0	-17.255619049072266	68.27389526367188	-505.603271484375	1.065349817276001	-44.43784332275391	-353.1890563964844	-0.0	-0.0	-0.0	-0.0	-0.0	-0.0	85077.9921875	1619.8531494140625	-2366.662841796875
0.0005	-0.0	-0.0	-0.0	-17.11707878112793	68.53931427001953	-503.9350891113281	1.7623218297958374	-46.04145812988281	-364.9102783203125	-0.0	-0.0	-0.0	-0.0	-0.0	-0.0	88758.953125	0.0206530094146728	-1981.2935791015625
0.001	-0.0	-0.0	-0.0	-17.436201095581055	69.34568786621094	-498.7430725097656	2.965280294418335	-47.10011291503906	-374.6857604980469	-0.0	-0.0	-0.0	-0.0	-0.0	-0.0	91643.53125	-1551.8740234375	-1467.76025390625
0.0015	-0.0	-0.0	-0.0	-18.06077003479004	69.87588500976562	-495.317626953125	4.877621173858643	-47.5547103881836	-382.2179870605469	-0.0	-0.0	-0.0	-0.0	-0.0	-0.0	93909.828125	-2823.125732421875	-810.03125
0.002	-0.0	-0.0	-0.0	-18.096240997314453	69.77562713623047	-489.8071594238281	6.51191520690918	-47.65437698364258	-387.8106384277344	-0.0	-0.0	-0.0	-0.0	-0.0	-0.0	95183.2734375	-4377.20361328125	-177.23143005371094
0.0025	-0.0	-0.0	-0.0	-18.120410919189453	69.95381164550781	-482.8621826171875	9.276901245117188	-48.20844650268555	-389.7053833007813	-0.0	-0.0	-0.0	-0.0	-0.0	-0.0	96234.9765625	-5330.29541015625	388.17230224609375
0.003	-0.0	-0.0	-0.0	-18.60719871520996	69.45978546142578	-475.3801879882813	10.707422256469728	-49.09577941894531	-390.692138671875	-0.0	-0.0	-0.0	-0.0	-0.0	-0.0	96679.2734375	-6263.2080078125	1080.1046142578125
0.0035	-0.0	-0.0	-0.0	-18.998519897460938	68.63372802734375	-469.9872131347656	12.583562850952148	-49.749305725097656	-391.8963928222656	-0.0	-0.0	-0.0	-0.0	-0.0	-0.0	97143.8828125	-7389.39111328125	1690.8193359375
0.004	-0.0	-0.0	-0.0	-19.485610961914062	67.90719604492188	-464.5003662109375	14.395333290100098	-50.69395446777344	-393.7371826171875	-0.0	-0.0	-0.0	-0.0	-0.0	-0.0	97591.75	-8127.7275390625	2231.156982421875
0.0045000000000000005	-0.0	-0.0	-0.0	-21.228290557861328	67.18048858642578	-457.9402465820313	15.78759479522705	-51.6143913269043	-398.5299987792969	-0.0	-0.0	-0.0	-0.0	-0.0	-0.0	98324.1796875	-8980.1767578125	2680.455322265625
0.005	-0.0	-0.0	-0.0	-21.85256004333496	65.76837158203125	-450.9325866699219	16.94375991821289	-53.145755767822266	-398.8256530761719	-0.0	-0.0	-0.0	-0.0	-0.0	-0.0	98871.140625	-9696.953125	3142.939453125
0.0055	-0.0	-0.0	-0.0	-22.57025909423828	64.35643005371094	-443.0918884277344	17.817224502563477	-54.70849609375	-402.4241027832031	-0.0	-0.0	-0.0	-0.0	-0.0	-0.0	99630.3828125	-10555.958984375	3430.6796875
0.006	-0.0	-0.0	-0.0	-23.462364196777344	63.37171936035156	-436.73480224609375	19.00788307189941	-55.27571868896485	-404.5191650390625	-0.0	-0.0	-0.0	-0.0	-0.0	-0.0	100163.4765625	-11503.1533203125	3927.66943359375
0.006500000000000001	-0.0	-0.0	-0.0	-24.161958694458008	62.60707092285156	-429.466796875	19.93621635437012	-56.32182693481445	-405.3650512695313	-0.0	-0.0	-0.0	-0.0	-0.0	-0.0	100579.90625	-11923.5205078125	4262.28955078125
0.007	-0.0	-0.0	-0.0	-24.72547912597656	61.20428085327149	-424.3176574707031	20.959339141845703	-56.54936981201172	-407.4599609375	-0.0	-0.0	-0.0	-0.0	-0.0	-0.0	100990.0703125	-12956.11328125	4576.69384765625
0.0075	-0.0	-0.0	-0.0	-25.176862716674805	60.68882369995117	-418.9486083984375	21.668909072875977	-56.52587890625	-408.3430786132813	-0.0	-0.0	-0.0	-0.0	-0.0	-0.0	101100.7265625	-13486.36328125	4908.125
0.008	-0.0	-0.0	-0.0	-25.105619430541992	59.7886962890625	-413.8916015625	22.121849060058597	-56.48867034912109	-409.5920715332031	-0.0	-0.0	-0.0	-0.0	-0.0	-0.0	101825.6875	-14152.728515625	5086.43359375
0.0085	-0.0	-0.0	-0.0	-25.223501205444336	59.14519500732422	-406.9769287109375	22.49042320251465	-56.73969650268555	-410.63873291015625	-0.0	-0.0	-0.0	-0.0	-0.0	-0.0	102125.1640625	-14533.08984375	5356.69091796875
0.009000000000000001	-0.0	-0.0	-0.0	-25.350217819213867	58.7140007019043	-401.6799011230469	22.784555435180664	-56.80489730834961	-413.0264892578125	-0.0	-0.0	-0.0	-0.0	-0.0	-0.0	102637.5859375	-15107.1982421875	5544.23095703125
0.0095	-0.0	-0.0	-0.0	-25.076568603515625	58.46954345703125	-396.7357177734375	22.56981468200684	-57.20425796508789	-415.2879943847656	-0.0	-0.0	-0.0	-0.0	-0.0	-0.0	103283.109375	-15574.6201171875	5611.0205078125
0.01	-0.0	-0.0	-0.0	-24.58477210998535	58.73060989379883	-393.88580322265625	21.897327423095703	-57.38619995117188	-418.3396911621094	-0.0	-0.0	-0.0	-0.0	-0.0	-0.0	103955.3671875	-15693.62109375	5535.720703125
0.0105	-0.0	-0.0	-0.0	-23.89378547668457	59.27172088623047	-389.67333984375	21.210447311401367	-58.37491607666016	-421.2232666015625	-0.0	-0.0	-0.0	-0.0	-0.0	-0.0	104742.40625	-15939.1396484375	5369.44873046875
0.011	-0.0	-0.0	-0.0	-23.655460357666016	59.17583847045898	-385.9943237304688	20.10016632080078	-59.46906280517578	-423.2052001953125	-0.0	-0.0	-0.0	-0.0	-0.0	-0.0	105234.4375	-15990.625	5377.97509765625
0.0115	-0.0	-0.0	-0.0	-23.313447952270508	59.27172088623047	-380.5221862792969	19.553516387939453	-60.62565994262695	-427.5645446777344	-0.0	-0.0	-0.0	-0.0	-0.0	-0.0	105999.921875	-16246.9404296875	5204.90966796875
0.012	-0.0	-0.0	-0.0	-22.852951049804688	59.09346008300781	-379.16802978515625	19.176029205322266	-61.67911529541016	-432.01470947265625	-0.0	-0.0	-0.0	-0.0	-0.0	-0.0	106457.359375	-16228.7255859375	5184.330078125
0.0125	-0.0	-0.0	-0.0	-22.525577545166016	58.38041687011719	-375.9305725097656	18.76961326599121	-62.67939758300781	-433.3857727050781	-0.0	-0.0	-0.0	-0.0	-0.0	-0.0	107503.828125	-16420.05078125	5136.83447265625
0.013000000000000001	-0.0	-0.0	-0.0	-21.9829158782959	57.92754364013672	-372.5456237792969	18.87297248840332	-63.91579055786133	-436.876953125	-0.0	-0.0	-0.0	-0.0	-0.0	-0.0	108207.2109375	-16636.552734375	5119.2890625
0.0135	-0.0	-0.0	-0.0	-21.730274200439453	57.251747131347656	-369.2793884277344	18.68096923828125	-65.01234436035156	-440.5136413574219	-0.0	-0.0	-0.0	-0.0	-0.0	-0.0	109012.78125	-16631.564453125	5232.38818359375
0.014	-0.0	-0.0	-0.0	-21.351524353027344	56.256378173828125	-366.427001953125	18.082225799560547	-65.9026870727539	-442.0551452636719	-0.0	-0.0	-0.0	-0.0	-0.0	-0.0	109338.421875	-16518.85546875	5298.5625
0.0145	-0.0	-0.0	-0.0	-20.311384201049805	55.13472366333008	-361.8628540039063	17.683080673217773	-67.02140808105469	-445.7212219238281	-0.0	-0.0	-0.0	-0.0	-0.0	-0.0	110140.0625	-16254.0283203125	5134.83154296875
0.015	-0.0	-0.0	-0.0	-19.77427864074707	53.99127960205078	-357.8574523925781	16.781232833862305	-67.80140686035156	-449.0369873046875	-0.0	-0.0	-0.0	-0.0	-0.0	-0.0	110460.671875	-16070.4169921875	5030.2392578125
0.0155	-0.0	-0.0	-0.0	-19.032447814941406	53.330562591552734	-354.4818725585937	15.753650665283203	-68.66265869140625	-450.0564575195313	-0.0	-0.0	-0.0	-0.0	-0.0	-0.0	110965.1796875	-15966.8701171875	4735.00341796875
0.016	-0.0	-0.0	-0.0	-18.34043502807617	52.40867614746094	-351.9134216308594	15.074016571044922	-69.55264282226562	-452.1513671875	-0.0	-0.0	-0.0	-0.0	-0.0	-0.0	111577.4453125	-15945.7333984375	4447.681640625
0.0165	-0.0	-0.0	-0.0	-17.463794708251953	51.9878158569336	-348.71075439453125	14.13520050048828	-70.44406127929688	-454.766357421875	-0.0	-0.0	-0.0	-0.0	-0.0	-0.0	111667.21875	-15784.0615234375	4226.8564453125
0.017	-0.0	-0.0	-0.0	-16.43023681640625	51.800254821777344	-345.6172790527344	13.432099342346191	-71.06234741210938	-454.1015319824219	-0.0	-0.0	-0.0	-0.0	-0.0	-0.0	111760.4765625	-15652.8857421875	4038.1083984375
0.0175	-0.0	-0.0	-0.0	-15.501327514648438	50.71520233154297	-343.08355712890625	12.679291725158691	-71.29705810546875	-458.1217651367188	-0.0	-0.0	-0.0	-0.0	-0.0	-0.0	112215.7421875	-15572.9619140625	3948.515625
0.018000000000000002	-0.0	-0.0	-0.0	-14.326093673706056	50.63610458374024	-339.8827209472656	12.190093040466309	-71.91519165039062	-459.4835205078125	-0.0	-0.0	-0.0	-0.0	-0.0	-0.0	112719.515625	-15336.9951171875	3787.400146484375
0.0185	-0.0	-0.0	-0.0	-13.255606651306152	50.27492141723633	-338.5948486328125	11.651825904846191	-72.5180435180664	-462.5654296875	-0.0	-0.0	-0.0	-0.0	-0.0	-0.0	113667.765625	-15379.880859375	3616.009521484375
0.019	-0.0	-0.0	-0.0	-12.027684211730955	49.99163055419922	-336.8505249023437	11.715680122375488	-72.9748764038086	-465.6239929199219	-0.0	-0.0	-0.0	-0.0	-0.0	-0.0	114262.0	-15536.0673828125	3601.701416015625
0.0195	-0.0	-0.0	-0.0	-10.993779182434082	49.43070983886719	-339.40594482421875	11.547879219055176	-73.39532470703125	-468.6832885742188	-0.0	-0.0	-0.0	-0.0	-0.0	-0.0	115157.0546875	-15390.2734375	3529.94189453125
0.02	-0.0	-0.0	-0.0	-9.70317554473877	49.425872802734375	-337.99322509765625	11.740931510925291	-73.94618225097656	-472.7116088867188	-0.0	-0.0	-0.0	-0.0	-0.0	-0.0	115722.5234375	-15546.50390625	3448.029052734375
0.0205	-0.0	-0.0	-0.0	-8.317252159118652	49.0901985168457	-340.9004821777344	11.198488235473633	-73.88886260986328	-475.62689208984375	-0.0	-0.0	-0.0	-0.0	-0.0	-0.0	117026.0234375	-15650.8056640625	3240.02001953125
0.021	-0.0	-0.0	-0.0	-8.024368286132812	48.71776580810547	-339.55084228515625	11.198402404785156	-73.5199966430664	-479.38519287109375	-0.0	-0.0	-0.0	-0.0	-0.0	-0.0	117982.9609375	-15615.685546875	3056.897705078125
0.021500000000000002	-0.0	-0.0	-0.0	-7.120751857757568	48.36566162109375	-340.6739196777344	11.302749633789062	-73.00572204589844	-482.2599792480469	-0.0	-0.0	-0.0	-0.0	-0.0	-0.0	118857.3359375	-15646.751953125	2831.9755859375
0.022	-0.0	-0.0	-0.0	-6.277068614959717	48.00898742675781	-342.7456970214844	11.052407264709473	-72.82910919189453	-484.97161865234375	-0.0	-0.0	-0.0	-0.0	-0.0	-0.0	119971.6484375	-15813.611328125	2718.45361328125
0.0225	-0.0	-0.0	-0.0	-5.737812042236328	47.41737365722656	-344.2701110839844	11.19343090057373	-72.34661102294922	-487.2098693847656	-0.0	-0.0	-0.0	-0.0	-0.0	-0.0	120738.6953125	-15939.2548828125	2701.1904296875
0.023	-0.0	-0.0	-0.0	-4.922865867614746	47.62818145751953	-344.4149169921875	11.375411987304688	-71.64923095703125	-488.9554443359375	-0.0	-0.0	-0.0	-0.0	-0.0	-0.0	121187.078125	-16103.341796875	2396.512939453125
0.0235	-0.0	-0.0	-0.0	-4.3876800537109375	47.26284408569336	-343.9826354980469	11.21390151977539	-71.52461242675781	-489.5905456542969	-0.0	-0.0	-0.0	-0.0	-0.0	-0.0	121669.7734375	-15937.669921875	2308.96240234375
0.024	-0.0	-0.0	-0.0	-3.175177335739136	47.41737365722656	-343.2767028808594	10.645294189453123	-71.28744506835938	-490.9868774414063	-0.0	-0.0	-0.0	-0.0	-0.0	-0.0	122239.828125	-16037.5078125	2188.577880859375
0.0245	-0.0	-0.0	-0.0	-3.0166714191436768	46.75713348388672	-344.3504638671875	10.959866523742676	-70.64127349853516	-492.3194885253906	-0.0	-0.0	-0.0	-0.0	-0.0	-0.0	122414.9921875	-15924.7353515625	2047.4691162109373
0.025	-0.0	-0.0	-0.0	-2.0155184268951416	47.202823638916016	-343.0159606933594	10.629070281982422	-70.56524658203125	-493.8430480957031	-0.0	-0.0	-0.0	-0.0	-0.0	-0.0	122648.9140625	-15704.517578125	1699.2999267578125
